<svg width="1361" height="1414" viewBox="0 0 1361 1414" fill="none" xmlns="http://www.w3.org/2000/svg">
<g opacity="0.2" filter="url(#filter0_f_175_194)">
<ellipse cx="670.5" cy="751" rx="670.5" ry="350" fill="#B3A659"/>
</g>
<path d="M191.035 987C192.53 987 193.662 987.63 194.431 988.891C195.213 990.138 195.605 991.953 195.605 994.336C195.605 996.719 195.213 998.541 194.431 999.802C193.662 1001.06 192.53 1001.69 191.035 1001.69C189.554 1001.69 188.422 1001.06 187.639 999.802C186.856 998.541 186.465 996.719 186.465 994.336C186.465 991.967 186.856 990.152 187.639 988.891C188.422 987.63 189.554 987 191.035 987ZM187.953 994.336C187.953 996.026 188.107 997.35 188.415 998.306L193.068 989.099C192.579 988.448 191.901 988.122 191.035 988.122C190.071 988.122 189.316 988.635 188.771 989.66C188.226 990.672 187.953 992.23 187.953 994.336ZM191.035 1000.55C192.013 1000.55 192.775 1000.04 193.32 999.033C193.865 998.008 194.137 996.442 194.137 994.336C194.137 992.549 193.963 991.163 193.613 990.18L188.96 999.469C189.463 1000.19 190.154 1000.55 191.035 1000.55Z" fill="url(#paint0_linear_175_194)" fill-opacity="0.6"/>
<path d="M192.293 1024.13H195.374V1025.24H187.387V1024.13H190.951V1012.46L187.555 1014.47L186.968 1013.54L191.161 1010.96H192.293V1024.13Z" fill="url(#paint1_linear_175_194)" fill-opacity="0.6"/>
<path d="M191.035 1034.5C192.53 1034.5 193.662 1035.13 194.431 1036.39C195.213 1037.64 195.605 1039.46 195.605 1041.84C195.605 1044.22 195.213 1046.04 194.431 1047.3C193.662 1048.56 192.53 1049.2 191.035 1049.2C189.554 1049.2 188.422 1048.56 187.639 1047.3C186.856 1046.04 186.465 1044.22 186.465 1041.84C186.465 1039.47 186.856 1037.65 187.639 1036.39C188.422 1035.13 189.554 1034.5 191.035 1034.5ZM187.953 1041.84C187.953 1043.53 188.107 1044.85 188.415 1045.81L193.068 1036.6C192.579 1035.95 191.901 1035.62 191.035 1035.62C190.071 1035.62 189.316 1036.14 188.771 1037.16C188.226 1038.17 187.953 1039.73 187.953 1041.84ZM191.035 1048.05C192.013 1048.05 192.775 1047.55 193.32 1046.53C193.865 1045.51 194.137 1043.94 194.137 1041.84C194.137 1040.05 193.963 1038.67 193.613 1037.68L188.96 1046.97C189.463 1047.69 190.154 1048.05 191.035 1048.05Z" fill="url(#paint2_linear_175_194)" fill-opacity="0.6"/>
<path d="M192.293 1071.64H195.374V1072.74H187.387V1071.64H190.951V1059.96L187.555 1061.97L186.968 1061.04L191.161 1058.46H192.293V1071.64Z" fill="url(#paint3_linear_175_194)" fill-opacity="0.6"/>
<path d="M192.293 1095.39H195.374V1096.49H187.387V1095.39H190.951V1083.71L187.555 1085.72L186.968 1084.79L191.161 1082.21H192.293V1095.39Z" fill="url(#paint4_linear_175_194)" fill-opacity="0.6"/>
<path d="M191.035 1105.76C192.53 1105.76 193.662 1106.39 194.431 1107.65C195.213 1108.89 195.605 1110.71 195.605 1113.09C195.605 1115.47 195.213 1117.3 194.431 1118.56C193.662 1119.82 192.53 1120.45 191.035 1120.45C189.554 1120.45 188.422 1119.82 187.639 1118.56C186.856 1117.3 186.465 1115.47 186.465 1113.09C186.465 1110.72 186.856 1108.91 187.639 1107.65C188.422 1106.39 189.554 1105.76 191.035 1105.76ZM187.953 1113.09C187.953 1114.78 188.107 1116.1 188.415 1117.06L193.068 1107.85C192.579 1107.2 191.901 1106.88 191.035 1106.88C190.071 1106.88 189.316 1107.39 188.771 1108.42C188.226 1109.43 187.953 1110.99 187.953 1113.09ZM191.035 1119.31C192.013 1119.31 192.775 1118.8 193.32 1117.79C193.865 1116.76 194.137 1115.2 194.137 1113.09C194.137 1111.3 193.963 1109.92 193.613 1108.93L188.96 1118.22C189.463 1118.95 190.154 1119.31 191.035 1119.31Z" fill="url(#paint5_linear_175_194)" fill-opacity="0.6"/>
<path d="M192.293 1142.89H195.374V1143.99H187.387V1142.89H190.951V1131.21L187.555 1133.23L186.968 1132.29L191.161 1129.71H192.293V1142.89Z" fill="url(#paint6_linear_175_194)" fill-opacity="0.6"/>
<path d="M191.035 1153.26C192.53 1153.26 193.662 1153.89 194.431 1155.15C195.213 1156.4 195.605 1158.21 195.605 1160.59C195.605 1162.98 195.213 1164.8 194.431 1166.06C193.662 1167.32 192.53 1167.95 191.035 1167.95C189.554 1167.95 188.422 1167.32 187.639 1166.06C186.856 1164.8 186.465 1162.98 186.465 1160.59C186.465 1158.22 186.856 1156.41 187.639 1155.15C188.422 1153.89 189.554 1153.26 191.035 1153.26ZM187.953 1160.59C187.953 1162.28 188.107 1163.61 188.415 1164.56L193.068 1155.36C192.579 1154.71 191.901 1154.38 191.035 1154.38C190.071 1154.38 189.316 1154.89 188.771 1155.92C188.226 1156.93 187.953 1158.49 187.953 1160.59ZM191.035 1166.81C192.013 1166.81 192.775 1166.3 193.32 1165.29C193.865 1164.27 194.137 1162.7 194.137 1160.59C194.137 1158.81 193.963 1157.42 193.613 1156.44L188.96 1165.73C189.463 1166.45 190.154 1166.81 191.035 1166.81Z" fill="url(#paint7_linear_175_194)" fill-opacity="0.6"/>
<path d="M191.035 1177.01C192.53 1177.01 193.662 1177.64 194.431 1178.9C195.213 1180.15 195.605 1181.96 195.605 1184.34C195.605 1186.73 195.213 1188.55 194.431 1189.81C193.662 1191.07 192.53 1191.7 191.035 1191.7C189.554 1191.7 188.422 1191.07 187.639 1189.81C186.856 1188.55 186.465 1186.73 186.465 1184.34C186.465 1181.98 186.856 1180.16 187.639 1178.9C188.422 1177.64 189.554 1177.01 191.035 1177.01ZM187.953 1184.34C187.953 1186.03 188.107 1187.36 188.415 1188.31L193.068 1179.11C192.579 1178.46 191.901 1178.13 191.035 1178.13C190.071 1178.13 189.316 1178.64 188.771 1179.67C188.226 1180.68 187.953 1182.24 187.953 1184.34ZM191.035 1190.56C192.013 1190.56 192.775 1190.05 193.32 1189.04C193.865 1188.02 194.137 1186.45 194.137 1184.34C194.137 1182.56 193.963 1181.17 193.613 1180.19L188.96 1189.48C189.463 1190.2 190.154 1190.56 191.035 1190.56Z" fill="url(#paint8_linear_175_194)" fill-opacity="0.6"/>
<path d="M192.293 1214.14H195.374V1215.24H187.387V1214.14H190.951V1202.46L187.555 1204.48L186.968 1203.54L191.161 1200.97H192.293V1214.14Z" fill="url(#paint9_linear_175_194)" fill-opacity="0.6"/>
<path d="M191.035 1224.51C192.53 1224.51 193.662 1225.14 194.431 1226.4C195.213 1227.65 195.605 1229.46 195.605 1231.85C195.605 1234.23 195.213 1236.05 194.431 1237.31C193.662 1238.57 192.53 1239.2 191.035 1239.2C189.554 1239.2 188.422 1238.57 187.639 1237.31C186.856 1236.05 186.465 1234.23 186.465 1231.85C186.465 1229.48 186.856 1227.66 187.639 1226.4C188.422 1225.14 189.554 1224.51 191.035 1224.51ZM187.953 1231.85C187.953 1233.54 188.107 1234.86 188.415 1235.82L193.068 1226.61C192.579 1225.96 191.901 1225.63 191.035 1225.63C190.071 1225.63 189.316 1226.15 188.771 1227.17C188.226 1228.18 187.953 1229.74 187.953 1231.85ZM191.035 1238.06C192.013 1238.06 192.775 1237.55 193.32 1236.54C193.865 1235.52 194.137 1233.95 194.137 1231.85C194.137 1230.06 193.963 1228.67 193.613 1227.69L188.96 1236.98C189.463 1237.7 190.154 1238.06 191.035 1238.06Z" fill="url(#paint10_linear_175_194)" fill-opacity="0.6"/>
<path d="M192.293 1261.65H195.374V1262.75H187.387V1261.65H190.951V1249.97L187.555 1251.98L186.968 1251.05L191.161 1248.47H192.293V1261.65Z" fill="url(#paint11_linear_175_194)" fill-opacity="0.6"/>
<path d="M192.293 1285.4H195.374V1286.5H187.387V1285.4H190.951V1273.72L187.555 1275.73L186.968 1274.8L191.161 1272.22H192.293V1285.4Z" fill="url(#paint12_linear_175_194)" fill-opacity="0.6"/>
<path d="M229.965 1034.5C231.46 1034.5 232.592 1035.13 233.361 1036.39C234.144 1037.64 234.535 1039.46 234.535 1041.84C234.535 1044.22 234.144 1046.04 233.361 1047.3C232.592 1048.56 231.46 1049.2 229.965 1049.2C228.484 1049.2 227.352 1048.56 226.569 1047.3C225.787 1046.04 225.395 1044.22 225.395 1041.84C225.395 1039.47 225.787 1037.65 226.569 1036.39C227.352 1035.13 228.484 1034.5 229.965 1034.5ZM226.884 1041.84C226.884 1043.53 227.037 1044.85 227.345 1045.81L231.998 1036.6C231.509 1035.95 230.832 1035.62 229.965 1035.62C229.001 1035.62 228.246 1036.14 227.701 1037.16C227.156 1038.17 226.884 1039.73 226.884 1041.84ZM229.965 1048.05C230.943 1048.05 231.705 1047.55 232.25 1046.53C232.795 1045.51 233.068 1043.94 233.068 1041.84C233.068 1040.05 232.893 1038.67 232.543 1037.68L227.89 1046.97C228.393 1047.69 229.085 1048.05 229.965 1048.05Z" fill="url(#paint13_linear_175_194)" fill-opacity="0.6"/>
<path d="M231.223 1071.64H234.304V1072.74H226.318V1071.64H229.881V1059.96L226.485 1061.97L225.898 1061.04L230.091 1058.46H231.223V1071.64Z" fill="url(#paint14_linear_175_194)" fill-opacity="0.6"/>
<path d="M229.965 1082C231.46 1082 232.592 1082.63 233.361 1083.9C234.144 1085.14 234.535 1086.96 234.535 1089.34C234.535 1091.72 234.144 1093.55 233.361 1094.81C232.592 1096.07 231.46 1096.7 229.965 1096.7C228.484 1096.7 227.352 1096.07 226.569 1094.81C225.787 1093.55 225.395 1091.72 225.395 1089.34C225.395 1086.97 225.787 1085.16 226.569 1083.9C227.352 1082.63 228.484 1082 229.965 1082ZM226.884 1089.34C226.884 1091.03 227.037 1092.35 227.345 1093.31L231.998 1084.1C231.509 1083.45 230.832 1083.13 229.965 1083.13C229.001 1083.13 228.246 1083.64 227.701 1084.66C227.156 1085.68 226.884 1087.23 226.884 1089.34ZM229.965 1095.55C230.943 1095.55 231.705 1095.05 232.25 1094.04C232.795 1093.01 233.068 1091.45 233.068 1089.34C233.068 1087.55 232.893 1086.17 232.543 1085.18L227.89 1094.47C228.393 1095.19 229.085 1095.55 229.965 1095.55Z" fill="url(#paint15_linear_175_194)" fill-opacity="0.6"/>
<path d="M229.965 1105.76C231.46 1105.76 232.592 1106.39 233.361 1107.65C234.144 1108.89 234.535 1110.71 234.535 1113.09C234.535 1115.47 234.144 1117.3 233.361 1118.56C232.592 1119.82 231.46 1120.45 229.965 1120.45C228.484 1120.45 227.352 1119.82 226.569 1118.56C225.787 1117.3 225.395 1115.47 225.395 1113.09C225.395 1110.72 225.787 1108.91 226.569 1107.65C227.352 1106.39 228.484 1105.76 229.965 1105.76ZM226.884 1113.09C226.884 1114.78 227.037 1116.1 227.345 1117.06L231.998 1107.85C231.509 1107.2 230.832 1106.88 229.965 1106.88C229.001 1106.88 228.246 1107.39 227.701 1108.42C227.156 1109.43 226.884 1110.99 226.884 1113.09ZM229.965 1119.31C230.943 1119.31 231.705 1118.8 232.25 1117.79C232.795 1116.76 233.068 1115.2 233.068 1113.09C233.068 1111.3 232.893 1109.92 232.543 1108.93L227.89 1118.22C228.393 1118.95 229.085 1119.31 229.965 1119.31Z" fill="url(#paint16_linear_175_194)" fill-opacity="0.6"/>
<path d="M231.223 1142.89H234.304V1143.99H226.318V1142.89H229.881V1131.21L226.485 1133.23L225.898 1132.29L230.091 1129.71H231.223V1142.89Z" fill="url(#paint17_linear_175_194)" fill-opacity="0.6"/>
<path d="M229.965 1153.26C231.46 1153.26 232.592 1153.89 233.361 1155.15C234.144 1156.4 234.535 1158.21 234.535 1160.59C234.535 1162.98 234.144 1164.8 233.361 1166.06C232.592 1167.32 231.46 1167.95 229.965 1167.95C228.484 1167.95 227.352 1167.32 226.569 1166.06C225.787 1164.8 225.395 1162.98 225.395 1160.59C225.395 1158.22 225.787 1156.41 226.569 1155.15C227.352 1153.89 228.484 1153.26 229.965 1153.26ZM226.884 1160.59C226.884 1162.28 227.037 1163.61 227.345 1164.56L231.998 1155.36C231.509 1154.71 230.832 1154.38 229.965 1154.38C229.001 1154.38 228.246 1154.89 227.701 1155.92C227.156 1156.93 226.884 1158.49 226.884 1160.59ZM229.965 1166.81C230.943 1166.81 231.705 1166.3 232.25 1165.29C232.795 1164.27 233.068 1162.7 233.068 1160.59C233.068 1158.81 232.893 1157.42 232.543 1156.44L227.89 1165.73C228.393 1166.45 229.085 1166.81 229.965 1166.81Z" fill="url(#paint18_linear_175_194)" fill-opacity="0.6"/>
<path d="M231.223 1190.39H234.304V1191.49H226.318V1190.39H229.881V1178.71L226.485 1180.73L225.898 1179.79L230.091 1177.22H231.223V1190.39Z" fill="url(#paint19_linear_175_194)" fill-opacity="0.6"/>
<path d="M229.965 1200.76C231.46 1200.76 232.592 1201.39 233.361 1202.65C234.144 1203.9 234.535 1205.71 234.535 1208.1C234.535 1210.48 234.144 1212.3 233.361 1213.56C232.592 1214.82 231.46 1215.45 229.965 1215.45C228.484 1215.45 227.352 1214.82 226.569 1213.56C225.787 1212.3 225.395 1210.48 225.395 1208.1C225.395 1205.73 225.787 1203.91 226.569 1202.65C227.352 1201.39 228.484 1200.76 229.965 1200.76ZM226.884 1208.1C226.884 1209.79 227.037 1211.11 227.345 1212.07L231.998 1202.86C231.509 1202.21 230.832 1201.88 229.965 1201.88C229.001 1201.88 228.246 1202.39 227.701 1203.42C227.156 1204.43 226.884 1205.99 226.884 1208.1ZM229.965 1214.31C230.943 1214.31 231.705 1213.8 232.25 1212.79C232.795 1211.77 233.068 1210.2 233.068 1208.1C233.068 1206.31 232.893 1204.92 232.543 1203.94L227.89 1213.23C228.393 1213.95 229.085 1214.31 229.965 1214.31Z" fill="url(#paint20_linear_175_194)" fill-opacity="0.6"/>
<path d="M229.965 1224.51C231.46 1224.51 232.592 1225.14 233.361 1226.4C234.144 1227.65 234.535 1229.46 234.535 1231.85C234.535 1234.23 234.144 1236.05 233.361 1237.31C232.592 1238.57 231.46 1239.2 229.965 1239.2C228.484 1239.2 227.352 1238.57 226.569 1237.31C225.787 1236.05 225.395 1234.23 225.395 1231.85C225.395 1229.48 225.787 1227.66 226.569 1226.4C227.352 1225.14 228.484 1224.51 229.965 1224.51ZM226.884 1231.85C226.884 1233.54 227.037 1234.86 227.345 1235.82L231.998 1226.61C231.509 1225.96 230.832 1225.63 229.965 1225.63C229.001 1225.63 228.246 1226.15 227.701 1227.17C227.156 1228.18 226.884 1229.74 226.884 1231.85ZM229.965 1238.06C230.943 1238.06 231.705 1237.55 232.25 1236.54C232.795 1235.52 233.068 1233.95 233.068 1231.85C233.068 1230.06 232.893 1228.67 232.543 1227.69L227.89 1236.98C228.393 1237.7 229.085 1238.06 229.965 1238.06Z" fill="url(#paint21_linear_175_194)" fill-opacity="0.6"/>
<path d="M231.223 1261.65H234.304V1262.75H226.318V1261.65H229.881V1249.97L226.485 1251.98L225.898 1251.05L230.091 1248.47H231.223V1261.65Z" fill="url(#paint22_linear_175_194)" fill-opacity="0.6"/>
<path d="M229.965 1272.01C231.46 1272.01 232.592 1272.64 233.361 1273.9C234.144 1275.15 234.535 1276.97 234.535 1279.35C234.535 1281.73 234.144 1283.55 233.361 1284.81C232.592 1286.08 231.46 1286.71 229.965 1286.71C228.484 1286.71 227.352 1286.08 226.569 1284.81C225.787 1283.55 225.395 1281.73 225.395 1279.35C225.395 1276.98 225.787 1275.16 226.569 1273.9C227.352 1272.64 228.484 1272.01 229.965 1272.01ZM226.884 1279.35C226.884 1281.04 227.037 1282.36 227.345 1283.32L231.998 1274.11C231.509 1273.46 230.832 1273.13 229.965 1273.13C229.001 1273.13 228.246 1273.65 227.701 1274.67C227.156 1275.68 226.884 1277.24 226.884 1279.35ZM229.965 1285.56C230.943 1285.56 231.705 1285.06 232.25 1284.05C232.795 1283.02 233.068 1281.45 233.068 1279.35C233.068 1277.56 232.893 1276.18 232.543 1275.19L227.89 1284.48C228.393 1285.2 229.085 1285.56 229.965 1285.56Z" fill="url(#paint23_linear_175_194)" fill-opacity="0.6"/>
<path d="M231.223 1309.15H234.304V1310.25H226.318V1309.15H229.881V1297.47L226.485 1299.48L225.898 1298.55L230.091 1295.97H231.223V1309.15Z" fill="url(#paint24_linear_175_194)" fill-opacity="0.6"/>
<path d="M231.223 1332.9H234.304V1334H226.318V1332.9H229.881V1321.22L226.485 1323.23L225.898 1322.3L230.091 1319.72H231.223V1332.9Z" fill="url(#paint25_linear_175_194)" fill-opacity="0.6"/>
<path d="M171.57 1058.25C173.065 1058.25 174.197 1058.88 174.966 1060.14C175.748 1061.39 176.14 1063.21 176.14 1065.59C176.14 1067.97 175.748 1069.79 174.966 1071.05C174.197 1072.32 173.065 1072.95 171.57 1072.95C170.088 1072.95 168.956 1072.32 168.174 1071.05C167.391 1069.79 167 1067.97 167 1065.59C167 1063.22 167.391 1061.41 168.174 1060.14C168.956 1058.88 170.088 1058.25 171.57 1058.25ZM168.488 1065.59C168.488 1067.28 168.642 1068.6 168.95 1069.56L173.603 1060.35C173.114 1059.7 172.436 1059.38 171.57 1059.38C170.606 1059.38 169.851 1059.89 169.306 1060.91C168.761 1061.92 168.488 1063.48 168.488 1065.59ZM171.57 1071.8C172.548 1071.8 173.31 1071.3 173.855 1070.29C174.4 1069.26 174.672 1067.7 174.672 1065.59C174.672 1063.8 174.498 1062.42 174.148 1061.43L169.495 1070.72C169.998 1071.44 170.689 1071.8 171.57 1071.8Z" fill="url(#paint26_linear_175_194)" fill-opacity="0.6"/>
<path d="M171.57 1082C173.065 1082 174.197 1082.63 174.966 1083.9C175.748 1085.14 176.14 1086.96 176.14 1089.34C176.14 1091.72 175.748 1093.55 174.966 1094.81C174.197 1096.07 173.065 1096.7 171.57 1096.7C170.088 1096.7 168.956 1096.07 168.174 1094.81C167.391 1093.55 167 1091.72 167 1089.34C167 1086.97 167.391 1085.16 168.174 1083.9C168.956 1082.63 170.088 1082 171.57 1082ZM168.488 1089.34C168.488 1091.03 168.642 1092.35 168.95 1093.31L173.603 1084.1C173.114 1083.45 172.436 1083.13 171.57 1083.13C170.606 1083.13 169.851 1083.64 169.306 1084.66C168.761 1085.68 168.488 1087.23 168.488 1089.34ZM171.57 1095.55C172.548 1095.55 173.31 1095.05 173.855 1094.04C174.4 1093.01 174.672 1091.45 174.672 1089.34C174.672 1087.55 174.498 1086.17 174.148 1085.18L169.495 1094.47C169.998 1095.19 170.689 1095.55 171.57 1095.55Z" fill="url(#paint27_linear_175_194)" fill-opacity="0.6"/>
<path d="M172.828 1119.14H175.909V1120.24H167.922V1119.14H171.486V1107.46L168.09 1109.48L167.503 1108.54L171.696 1105.96H172.828V1119.14Z" fill="url(#paint28_linear_175_194)" fill-opacity="0.6"/>
<path d="M171.57 1129.51C173.065 1129.51 174.197 1130.14 174.966 1131.4C175.748 1132.64 176.14 1134.46 176.14 1136.84C176.14 1139.23 175.748 1141.05 174.966 1142.31C174.197 1143.57 173.065 1144.2 171.57 1144.2C170.088 1144.2 168.956 1143.57 168.174 1142.31C167.391 1141.05 167 1139.23 167 1136.84C167 1134.47 167.391 1132.66 168.174 1131.4C168.956 1130.14 170.088 1129.51 171.57 1129.51ZM168.488 1136.84C168.488 1138.53 168.642 1139.86 168.95 1140.81L173.603 1131.61C173.114 1130.95 172.436 1130.63 171.57 1130.63C170.606 1130.63 169.851 1131.14 169.306 1132.17C168.761 1133.18 168.488 1134.74 168.488 1136.84ZM171.57 1143.06C172.548 1143.06 173.31 1142.55 173.855 1141.54C174.4 1140.51 174.672 1138.95 174.672 1136.84C174.672 1135.06 174.498 1133.67 174.148 1132.69L169.495 1141.98C169.998 1142.7 170.689 1143.06 171.57 1143.06Z" fill="url(#paint29_linear_175_194)" fill-opacity="0.6"/>
<path d="M172.828 1166.64H175.909V1167.74H167.922V1166.64H171.486V1154.96L168.09 1156.98L167.503 1156.04L171.696 1153.47H172.828V1166.64Z" fill="url(#paint30_linear_175_194)" fill-opacity="0.6"/>
<path d="M172.828 1190.39H175.909V1191.49H167.922V1190.39H171.486V1178.71L168.09 1180.73L167.503 1179.79L171.696 1177.22H172.828V1190.39Z" fill="url(#paint31_linear_175_194)" fill-opacity="0.6"/>
<path d="M211.758 1024.13H214.839V1025.24H206.853V1024.13H210.416V1012.46L207.02 1014.47L206.433 1013.54L210.626 1010.96H211.758V1024.13Z" fill="url(#paint32_linear_175_194)" fill-opacity="0.6"/>
<path d="M210.5 1034.5C211.995 1034.5 213.127 1035.13 213.896 1036.39C214.679 1037.64 215.07 1039.46 215.07 1041.84C215.07 1044.22 214.679 1046.04 213.896 1047.3C213.127 1048.56 211.995 1049.2 210.5 1049.2C209.019 1049.2 207.887 1048.56 207.104 1047.3C206.321 1046.04 205.93 1044.22 205.93 1041.84C205.93 1039.47 206.321 1037.65 207.104 1036.39C207.887 1035.13 209.019 1034.5 210.5 1034.5ZM207.419 1041.84C207.419 1043.53 207.572 1044.85 207.88 1045.81L212.533 1036.6C212.044 1035.95 211.366 1035.62 210.5 1035.62C209.536 1035.62 208.781 1036.14 208.236 1037.16C207.691 1038.17 207.419 1039.73 207.419 1041.84ZM210.5 1048.05C211.478 1048.05 212.24 1047.55 212.785 1046.53C213.33 1045.51 213.602 1043.94 213.602 1041.84C213.602 1040.05 213.428 1038.67 213.078 1037.68L208.425 1046.97C208.928 1047.69 209.62 1048.05 210.5 1048.05Z" fill="url(#paint33_linear_175_194)" fill-opacity="0.6"/>
<path d="M211.758 1071.64H214.839V1072.74H206.853V1071.64H210.416V1059.96L207.02 1061.97L206.433 1061.04L210.626 1058.46H211.758V1071.64Z" fill="url(#paint34_linear_175_194)" fill-opacity="0.6"/>
<path d="M211.758 1095.39H214.839V1096.49H206.853V1095.39H210.416V1083.71L207.02 1085.72L206.433 1084.79L210.626 1082.21H211.758V1095.39Z" fill="url(#paint35_linear_175_194)" fill-opacity="0.6"/>
<path d="M210.5 1105.76C211.995 1105.76 213.127 1106.39 213.896 1107.65C214.679 1108.89 215.07 1110.71 215.07 1113.09C215.07 1115.47 214.679 1117.3 213.896 1118.56C213.127 1119.82 211.995 1120.45 210.5 1120.45C209.019 1120.45 207.887 1119.82 207.104 1118.56C206.321 1117.3 205.93 1115.47 205.93 1113.09C205.93 1110.72 206.321 1108.91 207.104 1107.65C207.887 1106.39 209.019 1105.76 210.5 1105.76ZM207.419 1113.09C207.419 1114.78 207.572 1116.1 207.88 1117.06L212.533 1107.85C212.044 1107.2 211.366 1106.88 210.5 1106.88C209.536 1106.88 208.781 1107.39 208.236 1108.42C207.691 1109.43 207.419 1110.99 207.419 1113.09ZM210.5 1119.31C211.478 1119.31 212.24 1118.8 212.785 1117.79C213.33 1116.76 213.602 1115.2 213.602 1113.09C213.602 1111.3 213.428 1109.92 213.078 1108.93L208.425 1118.22C208.928 1118.95 209.62 1119.31 210.5 1119.31Z" fill="url(#paint36_linear_175_194)" fill-opacity="0.6"/>
<path d="M211.758 1142.89H214.839V1143.99H206.853V1142.89H210.416V1131.21L207.02 1133.23L206.433 1132.29L210.626 1129.71H211.758V1142.89Z" fill="url(#paint37_linear_175_194)" fill-opacity="0.6"/>
<path d="M211.758 1166.64H214.839V1167.74H206.853V1166.64H210.416V1154.96L207.02 1156.98L206.433 1156.04L210.626 1153.47H211.758V1166.64Z" fill="url(#paint38_linear_175_194)" fill-opacity="0.6"/>
<path d="M210.5 1177.01C211.995 1177.01 213.127 1177.64 213.896 1178.9C214.679 1180.15 215.07 1181.96 215.07 1184.34C215.07 1186.73 214.679 1188.55 213.896 1189.81C213.127 1191.07 211.995 1191.7 210.5 1191.7C209.019 1191.7 207.887 1191.07 207.104 1189.81C206.321 1188.55 205.93 1186.73 205.93 1184.34C205.93 1181.98 206.321 1180.16 207.104 1178.9C207.887 1177.64 209.019 1177.01 210.5 1177.01ZM207.419 1184.34C207.419 1186.03 207.572 1187.36 207.88 1188.31L212.533 1179.11C212.044 1178.46 211.366 1178.13 210.5 1178.13C209.536 1178.13 208.781 1178.64 208.236 1179.67C207.691 1180.68 207.419 1182.24 207.419 1184.34ZM210.5 1190.56C211.478 1190.56 212.24 1190.05 212.785 1189.04C213.33 1188.02 213.602 1186.45 213.602 1184.34C213.602 1182.56 213.428 1181.17 213.078 1180.19L208.425 1189.48C208.928 1190.2 209.62 1190.56 210.5 1190.56Z" fill="url(#paint39_linear_175_194)" fill-opacity="0.6"/>
<path d="M211.758 1214.14H214.839V1215.24H206.853V1214.14H210.416V1202.46L207.02 1204.48L206.433 1203.54L210.626 1200.97H211.758V1214.14Z" fill="url(#paint40_linear_175_194)" fill-opacity="0.6"/>
<path d="M210.5 1224.51C211.995 1224.51 213.127 1225.14 213.896 1226.4C214.679 1227.65 215.07 1229.46 215.07 1231.85C215.07 1234.23 214.679 1236.05 213.896 1237.31C213.127 1238.57 211.995 1239.2 210.5 1239.2C209.019 1239.2 207.887 1238.57 207.104 1237.31C206.321 1236.05 205.93 1234.23 205.93 1231.85C205.93 1229.48 206.321 1227.66 207.104 1226.4C207.887 1225.14 209.019 1224.51 210.5 1224.51ZM207.419 1231.85C207.419 1233.54 207.572 1234.86 207.88 1235.82L212.533 1226.61C212.044 1225.96 211.366 1225.63 210.5 1225.63C209.536 1225.63 208.781 1226.15 208.236 1227.17C207.691 1228.18 207.419 1229.74 207.419 1231.85ZM210.5 1238.06C211.478 1238.06 212.24 1237.55 212.785 1236.54C213.33 1235.52 213.602 1233.95 213.602 1231.85C213.602 1230.06 213.428 1228.67 213.078 1227.69L208.425 1236.98C208.928 1237.7 209.62 1238.06 210.5 1238.06Z" fill="url(#paint41_linear_175_194)" fill-opacity="0.6"/>
<path d="M249.43 1010.75C250.926 1010.75 252.057 1011.38 252.826 1012.64C253.609 1013.89 254 1015.7 254 1018.09C254 1020.47 253.609 1022.29 252.826 1023.55C252.057 1024.81 250.926 1025.44 249.43 1025.44C247.949 1025.44 246.817 1024.81 246.034 1023.55C245.252 1022.29 244.86 1020.47 244.86 1018.09C244.86 1015.72 245.252 1013.9 246.034 1012.64C246.817 1011.38 247.949 1010.75 249.43 1010.75ZM246.349 1018.09C246.349 1019.78 246.502 1021.1 246.81 1022.06L251.464 1012.85C250.974 1012.2 250.297 1011.87 249.43 1011.87C248.466 1011.87 247.711 1012.39 247.166 1013.41C246.621 1014.42 246.349 1015.98 246.349 1018.09ZM249.43 1024.3C250.408 1024.3 251.17 1023.8 251.715 1022.78C252.26 1021.76 252.533 1020.19 252.533 1018.09C252.533 1016.3 252.358 1014.91 252.009 1013.93L247.355 1023.22C247.858 1023.94 248.55 1024.3 249.43 1024.3Z" fill="url(#paint42_linear_175_194)" fill-opacity="0.6"/>
<path d="M250.688 1047.89H253.769V1048.99H245.783V1047.89H249.346V1036.21L245.95 1038.22L245.363 1037.29L249.556 1034.71H250.688V1047.89Z" fill="url(#paint43_linear_175_194)" fill-opacity="0.6"/>
<path d="M250.688 1071.64H253.769V1072.74H245.783V1071.64H249.346V1059.96L245.95 1061.97L245.363 1061.04L249.556 1058.46H250.688V1071.64Z" fill="url(#paint44_linear_175_194)" fill-opacity="0.6"/>
<path d="M249.43 1082C250.926 1082 252.057 1082.63 252.826 1083.9C253.609 1085.14 254 1086.96 254 1089.34C254 1091.72 253.609 1093.55 252.826 1094.81C252.057 1096.07 250.926 1096.7 249.43 1096.7C247.949 1096.7 246.817 1096.07 246.034 1094.81C245.252 1093.55 244.86 1091.72 244.86 1089.34C244.86 1086.97 245.252 1085.16 246.034 1083.9C246.817 1082.63 247.949 1082 249.43 1082ZM246.349 1089.34C246.349 1091.03 246.502 1092.35 246.81 1093.31L251.464 1084.1C250.974 1083.45 250.297 1083.13 249.43 1083.13C248.466 1083.13 247.711 1083.64 247.166 1084.66C246.621 1085.68 246.349 1087.23 246.349 1089.34ZM249.43 1095.55C250.408 1095.55 251.17 1095.05 251.715 1094.04C252.26 1093.01 252.533 1091.45 252.533 1089.34C252.533 1087.55 252.358 1086.17 252.009 1085.18L247.355 1094.47C247.858 1095.19 248.55 1095.55 249.43 1095.55Z" fill="url(#paint45_linear_175_194)" fill-opacity="0.6"/>
<path d="M249.43 1105.76C250.926 1105.76 252.057 1106.39 252.826 1107.65C253.609 1108.89 254 1110.71 254 1113.09C254 1115.47 253.609 1117.3 252.826 1118.56C252.057 1119.82 250.926 1120.45 249.43 1120.45C247.949 1120.45 246.817 1119.82 246.034 1118.56C245.252 1117.3 244.86 1115.47 244.86 1113.09C244.86 1110.72 245.252 1108.91 246.034 1107.65C246.817 1106.39 247.949 1105.76 249.43 1105.76ZM246.349 1113.09C246.349 1114.78 246.502 1116.1 246.81 1117.06L251.464 1107.85C250.974 1107.2 250.297 1106.88 249.43 1106.88C248.466 1106.88 247.711 1107.39 247.166 1108.42C246.621 1109.43 246.349 1110.99 246.349 1113.09ZM249.43 1119.31C250.408 1119.31 251.17 1118.8 251.715 1117.79C252.26 1116.76 252.533 1115.2 252.533 1113.09C252.533 1111.3 252.358 1109.92 252.009 1108.93L247.355 1118.22C247.858 1118.95 248.55 1119.31 249.43 1119.31Z" fill="url(#paint46_linear_175_194)" fill-opacity="0.6"/>
<g opacity="0.6">
<path d="M1077.93 687C1079.36 687 1080.44 687.605 1081.17 688.815C1081.92 690.011 1082.29 691.753 1082.29 694.04C1082.29 696.327 1081.92 698.075 1081.17 699.285C1080.44 700.495 1079.36 701.1 1077.93 701.1C1076.52 701.1 1075.44 700.495 1074.69 699.285C1073.94 698.075 1073.57 696.327 1073.57 694.04C1073.57 691.767 1073.94 690.025 1074.69 688.815C1075.44 687.605 1076.52 687 1077.93 687ZM1074.99 694.04C1074.99 695.662 1075.14 696.932 1075.43 697.849L1079.87 689.014C1079.4 688.389 1078.76 688.077 1077.93 688.077C1077.01 688.077 1076.29 688.569 1075.77 689.553C1075.25 690.523 1074.99 692.019 1074.99 694.04ZM1077.93 700.003C1078.86 700.003 1079.59 699.518 1080.11 698.547C1080.63 697.564 1080.89 696.061 1080.89 694.04C1080.89 692.325 1080.72 690.995 1080.39 690.051L1075.95 698.966C1076.43 699.658 1077.09 700.003 1077.93 700.003Z" fill="url(#paint47_linear_175_194)"/>
<path d="M1079.13 722.637H1082.07V723.694H1074.45V722.637H1077.85V711.428L1074.61 713.363L1074.05 712.465L1078.05 709.992H1079.13V722.637Z" fill="url(#paint48_linear_175_194)"/>
<path d="M1077.93 732.586C1079.36 732.586 1080.44 733.191 1081.17 734.4C1081.92 735.597 1082.29 737.339 1082.29 739.626C1082.29 741.913 1081.92 743.661 1081.17 744.871C1080.44 746.081 1079.36 746.686 1077.93 746.686C1076.52 746.686 1075.44 746.081 1074.69 744.871C1073.94 743.661 1073.57 741.913 1073.57 739.626C1073.57 737.352 1073.94 735.61 1074.69 734.4C1075.44 733.191 1076.52 732.586 1077.93 732.586ZM1074.99 739.626C1074.99 741.248 1075.14 742.518 1075.43 743.435L1079.87 734.6C1079.4 733.975 1078.76 733.663 1077.93 733.663C1077.01 733.663 1076.29 734.155 1075.77 735.138C1075.25 736.109 1074.99 737.605 1074.99 739.626ZM1077.93 745.589C1078.86 745.589 1079.59 745.104 1080.11 744.133C1080.63 743.149 1080.89 741.647 1080.89 739.626C1080.89 737.911 1080.72 736.581 1080.39 735.637L1075.95 744.552C1076.43 745.243 1077.09 745.589 1077.93 745.589Z" fill="url(#paint49_linear_175_194)"/>
<path d="M1079.13 768.222H1082.07V769.279H1074.45V768.222H1077.85V757.014L1074.61 758.948L1074.05 758.051L1078.05 755.578H1079.13V768.222Z" fill="url(#paint50_linear_175_194)"/>
<path d="M1079.13 791.015H1082.07V792.072H1074.45V791.015H1077.85V779.807L1074.61 781.741L1074.05 780.844L1078.05 778.371H1079.13V791.015Z" fill="url(#paint51_linear_175_194)"/>
<path d="M1077.93 800.964C1079.36 800.964 1080.44 801.569 1081.17 802.779C1081.92 803.976 1082.29 805.717 1082.29 808.004C1082.29 810.291 1081.92 812.039 1081.17 813.249C1080.44 814.459 1079.36 815.064 1077.93 815.064C1076.52 815.064 1075.44 814.459 1074.69 813.249C1073.94 812.039 1073.57 810.291 1073.57 808.004C1073.57 805.731 1073.94 803.989 1074.69 802.779C1075.44 801.569 1076.52 800.964 1077.93 800.964ZM1074.99 808.004C1074.99 809.626 1075.14 810.896 1075.43 811.813L1079.87 802.978C1079.4 802.353 1078.76 802.041 1077.93 802.041C1077.01 802.041 1076.29 802.533 1075.77 803.517C1075.25 804.487 1074.99 805.983 1074.99 808.004ZM1077.93 813.967C1078.86 813.967 1079.59 813.482 1080.11 812.511C1080.63 811.528 1080.89 810.025 1080.89 808.004C1080.89 806.289 1080.72 804.959 1080.39 804.015L1075.95 812.93C1076.43 813.622 1077.09 813.967 1077.93 813.967Z" fill="url(#paint52_linear_175_194)"/>
<path d="M1079.13 836.601H1082.07V837.658H1074.45V836.601H1077.85V825.392L1074.61 827.327L1074.05 826.429L1078.05 823.956H1079.13V836.601Z" fill="url(#paint53_linear_175_194)"/>
<path d="M1077.93 846.55C1079.36 846.55 1080.44 847.155 1081.17 848.365C1081.92 849.561 1082.29 851.303 1082.29 853.59C1082.29 855.877 1081.92 857.625 1081.17 858.835C1080.44 860.045 1079.36 860.65 1077.93 860.65C1076.52 860.65 1075.44 860.045 1074.69 858.835C1073.94 857.625 1073.57 855.877 1073.57 853.59C1073.57 851.316 1073.94 849.574 1074.69 848.365C1075.44 847.155 1076.52 846.55 1077.93 846.55ZM1074.99 853.59C1074.99 855.212 1075.14 856.482 1075.43 857.399L1079.87 848.564C1079.4 847.939 1078.76 847.627 1077.93 847.627C1077.01 847.627 1076.29 848.119 1075.77 849.102C1075.25 850.073 1074.99 851.569 1074.99 853.59ZM1077.93 859.553C1078.86 859.553 1079.59 859.068 1080.11 858.097C1080.63 857.113 1080.89 855.611 1080.89 853.59C1080.89 851.875 1080.72 850.545 1080.39 849.601L1075.95 858.516C1076.43 859.207 1077.09 859.553 1077.93 859.553Z" fill="url(#paint54_linear_175_194)"/>
<path d="M1077.93 869.342C1079.36 869.342 1080.44 869.947 1081.17 871.157C1081.92 872.354 1082.29 874.096 1082.29 876.383C1082.29 878.669 1081.92 880.418 1081.17 881.628C1080.44 882.838 1079.36 883.443 1077.93 883.443C1076.52 883.443 1075.44 882.838 1074.69 881.628C1073.94 880.418 1073.57 878.669 1073.57 876.383C1073.57 874.109 1073.94 872.367 1074.69 871.157C1075.44 869.947 1076.52 869.342 1077.93 869.342ZM1074.99 876.383C1074.99 878.005 1075.14 879.274 1075.43 880.192L1079.87 871.357C1079.4 870.732 1078.76 870.419 1077.93 870.419C1077.01 870.419 1076.29 870.911 1075.77 871.895C1075.25 872.866 1074.99 874.362 1074.99 876.383ZM1077.93 882.346C1078.86 882.346 1079.59 881.86 1080.11 880.89C1080.63 879.906 1080.89 878.404 1080.89 876.383C1080.89 874.667 1080.72 873.338 1080.39 872.394L1075.95 881.309C1076.43 882 1077.09 882.346 1077.93 882.346Z" fill="url(#paint55_linear_175_194)"/>
<path d="M1079.13 904.979H1082.07V906.036H1074.45V904.979H1077.85V893.771L1074.61 895.705L1074.05 894.808L1078.05 892.335H1079.13V904.979Z" fill="url(#paint56_linear_175_194)"/>
<path d="M1077.93 914.928C1079.36 914.928 1080.44 915.533 1081.17 916.743C1081.92 917.94 1082.29 919.681 1082.29 921.968C1082.29 924.255 1081.92 926.003 1081.17 927.213C1080.44 928.423 1079.36 929.028 1077.93 929.028C1076.52 929.028 1075.44 928.423 1074.69 927.213C1073.94 926.003 1073.57 924.255 1073.57 921.968C1073.57 919.695 1073.94 917.953 1074.69 916.743C1075.44 915.533 1076.52 914.928 1077.93 914.928ZM1074.99 921.968C1074.99 923.59 1075.14 924.86 1075.43 925.777L1079.87 916.942C1079.4 916.317 1078.76 916.005 1077.93 916.005C1077.01 916.005 1076.29 916.497 1075.77 917.481C1075.25 918.451 1074.99 919.947 1074.99 921.968ZM1077.93 927.931C1078.86 927.931 1079.59 927.446 1080.11 926.475C1080.63 925.492 1080.89 923.989 1080.89 921.968C1080.89 920.253 1080.72 918.923 1080.39 917.979L1075.95 926.894C1076.43 927.586 1077.09 927.931 1077.93 927.931Z" fill="url(#paint57_linear_175_194)"/>
<path d="M1079.13 950.565H1082.07V951.622H1074.45V950.565H1077.85V939.356L1074.61 941.291L1074.05 940.393L1078.05 937.92H1079.13V950.565Z" fill="url(#paint58_linear_175_194)"/>
<path d="M1079.13 973.357H1082.07V974.414H1074.45V973.357H1077.85V962.149L1074.61 964.084L1074.05 963.186L1078.05 960.713H1079.13V973.357Z" fill="url(#paint59_linear_175_194)"/>
<path d="M1115.07 732.586C1116.5 732.586 1117.58 733.191 1118.31 734.4C1119.06 735.597 1119.43 737.339 1119.43 739.626C1119.43 741.913 1119.06 743.661 1118.31 744.871C1117.58 746.081 1116.5 746.686 1115.07 746.686C1113.66 746.686 1112.58 746.081 1111.83 744.871C1111.08 743.661 1110.71 741.913 1110.71 739.626C1110.71 737.352 1111.08 735.61 1111.83 734.4C1112.58 733.191 1113.66 732.586 1115.07 732.586ZM1112.13 739.626C1112.13 741.248 1112.28 742.518 1112.57 743.435L1117.01 734.6C1116.54 733.975 1115.9 733.663 1115.07 733.663C1114.15 733.663 1113.43 734.155 1112.91 735.138C1112.39 736.109 1112.13 737.605 1112.13 739.626ZM1115.07 745.589C1116 745.589 1116.73 745.104 1117.25 744.133C1117.77 743.149 1118.03 741.647 1118.03 739.626C1118.03 737.911 1117.86 736.581 1117.53 735.637L1113.09 744.552C1113.57 745.243 1114.23 745.589 1115.07 745.589Z" fill="url(#paint60_linear_175_194)"/>
<path d="M1116.27 768.222H1119.21V769.279H1111.59V768.222H1114.99V757.014L1111.75 758.948L1111.19 758.051L1115.19 755.578H1116.27V768.222Z" fill="url(#paint61_linear_175_194)"/>
<path d="M1115.07 778.171C1116.5 778.171 1117.58 778.776 1118.31 779.986C1119.06 781.183 1119.43 782.924 1119.43 785.211C1119.43 787.498 1119.06 789.247 1118.31 790.457C1117.58 791.666 1116.5 792.271 1115.07 792.271C1113.66 792.271 1112.58 791.666 1111.83 790.457C1111.08 789.247 1110.71 787.498 1110.71 785.211C1110.71 782.938 1111.08 781.196 1111.83 779.986C1112.58 778.776 1113.66 778.171 1115.07 778.171ZM1112.13 785.211C1112.13 786.833 1112.28 788.103 1112.57 789.021L1117.01 780.186C1116.54 779.561 1115.9 779.248 1115.07 779.248C1114.15 779.248 1113.43 779.74 1112.91 780.724C1112.39 781.695 1112.13 783.19 1112.13 785.211ZM1115.07 791.174C1116 791.174 1116.73 790.689 1117.25 789.719C1117.77 788.735 1118.03 787.232 1118.03 785.211C1118.03 783.496 1117.86 782.167 1117.53 781.223L1113.09 790.137C1113.57 790.829 1114.23 791.174 1115.07 791.174Z" fill="url(#paint62_linear_175_194)"/>
<path d="M1115.07 800.964C1116.5 800.964 1117.58 801.569 1118.31 802.779C1119.06 803.976 1119.43 805.717 1119.43 808.004C1119.43 810.291 1119.06 812.039 1118.31 813.249C1117.58 814.459 1116.5 815.064 1115.07 815.064C1113.66 815.064 1112.58 814.459 1111.83 813.249C1111.08 812.039 1110.71 810.291 1110.71 808.004C1110.71 805.731 1111.08 803.989 1111.83 802.779C1112.58 801.569 1113.66 800.964 1115.07 800.964ZM1112.13 808.004C1112.13 809.626 1112.28 810.896 1112.57 811.813L1117.01 802.978C1116.54 802.353 1115.9 802.041 1115.07 802.041C1114.15 802.041 1113.43 802.533 1112.91 803.517C1112.39 804.487 1112.13 805.983 1112.13 808.004ZM1115.07 813.967C1116 813.967 1116.73 813.482 1117.25 812.511C1117.77 811.528 1118.03 810.025 1118.03 808.004C1118.03 806.289 1117.86 804.959 1117.53 804.015L1113.09 812.93C1113.57 813.622 1114.23 813.967 1115.07 813.967Z" fill="url(#paint63_linear_175_194)"/>
<path d="M1116.27 836.601H1119.21V837.658H1111.59V836.601H1114.99V825.392L1111.75 827.327L1111.19 826.429L1115.19 823.956H1116.27V836.601Z" fill="url(#paint64_linear_175_194)"/>
<path d="M1115.07 846.55C1116.5 846.55 1117.58 847.155 1118.31 848.365C1119.06 849.561 1119.43 851.303 1119.43 853.59C1119.43 855.877 1119.06 857.625 1118.31 858.835C1117.58 860.045 1116.5 860.65 1115.07 860.65C1113.66 860.65 1112.58 860.045 1111.83 858.835C1111.08 857.625 1110.71 855.877 1110.71 853.59C1110.71 851.316 1111.08 849.574 1111.83 848.365C1112.58 847.155 1113.66 846.55 1115.07 846.55ZM1112.13 853.59C1112.13 855.212 1112.28 856.482 1112.57 857.399L1117.01 848.564C1116.54 847.939 1115.9 847.627 1115.07 847.627C1114.15 847.627 1113.43 848.119 1112.91 849.102C1112.39 850.073 1112.13 851.569 1112.13 853.59ZM1115.07 859.553C1116 859.553 1116.73 859.068 1117.25 858.097C1117.77 857.113 1118.03 855.611 1118.03 853.59C1118.03 851.875 1117.86 850.545 1117.53 849.601L1113.09 858.516C1113.57 859.207 1114.23 859.553 1115.07 859.553Z" fill="url(#paint65_linear_175_194)"/>
<path d="M1116.27 882.186H1119.21V883.243H1111.59V882.186H1114.99V870.978L1111.75 872.912L1111.19 872.015L1115.19 869.542H1116.27V882.186Z" fill="url(#paint66_linear_175_194)"/>
<path d="M1115.07 892.135C1116.5 892.135 1117.58 892.74 1118.31 893.95C1119.06 895.147 1119.43 896.888 1119.43 899.175C1119.43 901.462 1119.06 903.211 1118.31 904.421C1117.58 905.63 1116.5 906.235 1115.07 906.235C1113.66 906.235 1112.58 905.63 1111.83 904.421C1111.08 903.211 1110.71 901.462 1110.71 899.175C1110.71 896.902 1111.08 895.16 1111.83 893.95C1112.58 892.74 1113.66 892.135 1115.07 892.135ZM1112.13 899.175C1112.13 900.797 1112.28 902.067 1112.57 902.985L1117.01 894.15C1116.54 893.525 1115.9 893.212 1115.07 893.212C1114.15 893.212 1113.43 893.704 1112.91 894.688C1112.39 895.659 1112.13 897.154 1112.13 899.175ZM1115.07 905.139C1116 905.139 1116.73 904.653 1117.25 903.683C1117.77 902.699 1118.03 901.196 1118.03 899.175C1118.03 897.46 1117.86 896.131 1117.53 895.187L1113.09 904.101C1113.57 904.793 1114.23 905.139 1115.07 905.139Z" fill="url(#paint67_linear_175_194)"/>
<path d="M1115.07 914.928C1116.5 914.928 1117.58 915.533 1118.31 916.743C1119.06 917.94 1119.43 919.681 1119.43 921.968C1119.43 924.255 1119.06 926.003 1118.31 927.213C1117.58 928.423 1116.5 929.028 1115.07 929.028C1113.66 929.028 1112.58 928.423 1111.83 927.213C1111.08 926.003 1110.71 924.255 1110.71 921.968C1110.71 919.695 1111.08 917.953 1111.83 916.743C1112.58 915.533 1113.66 914.928 1115.07 914.928ZM1112.13 921.968C1112.13 923.59 1112.28 924.86 1112.57 925.777L1117.01 916.942C1116.54 916.317 1115.9 916.005 1115.07 916.005C1114.15 916.005 1113.43 916.497 1112.91 917.481C1112.39 918.451 1112.13 919.947 1112.13 921.968ZM1115.07 927.931C1116 927.931 1116.73 927.446 1117.25 926.475C1117.77 925.492 1118.03 923.989 1118.03 921.968C1118.03 920.253 1117.86 918.923 1117.53 917.979L1113.09 926.894C1113.57 927.586 1114.23 927.931 1115.07 927.931Z" fill="url(#paint68_linear_175_194)"/>
<path d="M1116.27 950.565H1119.21V951.622H1111.59V950.565H1114.99V939.356L1111.75 941.291L1111.19 940.393L1115.19 937.92H1116.27V950.565Z" fill="url(#paint69_linear_175_194)"/>
<path d="M1115.07 960.514C1116.5 960.514 1117.58 961.119 1118.31 962.329C1119.06 963.525 1119.43 965.267 1119.43 967.554C1119.43 969.841 1119.06 971.589 1118.31 972.799C1117.58 974.009 1116.5 974.614 1115.07 974.614C1113.66 974.614 1112.58 974.009 1111.83 972.799C1111.08 971.589 1110.71 969.841 1110.71 967.554C1110.71 965.28 1111.08 963.538 1111.83 962.329C1112.58 961.119 1113.66 960.514 1115.07 960.514ZM1112.13 967.554C1112.13 969.176 1112.28 970.446 1112.57 971.363L1117.01 962.528C1116.54 961.903 1115.9 961.591 1115.07 961.591C1114.15 961.591 1113.43 962.083 1112.91 963.066C1112.39 964.037 1112.13 965.533 1112.13 967.554ZM1115.07 973.517C1116 973.517 1116.73 973.032 1117.25 972.061C1117.77 971.077 1118.03 969.575 1118.03 967.554C1118.03 965.839 1117.86 964.509 1117.53 963.565L1113.09 972.48C1113.57 973.171 1114.23 973.517 1115.07 973.517Z" fill="url(#paint70_linear_175_194)"/>
<path d="M1116.27 996.15H1119.21V997.207H1111.59V996.15H1114.99V984.942L1111.75 986.876L1111.19 985.979L1115.19 983.506H1116.27V996.15Z" fill="url(#paint71_linear_175_194)"/>
<path d="M1116.27 1018.94H1119.21V1020H1111.59V1018.94H1114.99V1007.73L1111.75 1009.67L1111.19 1008.77L1115.19 1006.3H1116.27V1018.94Z" fill="url(#paint72_linear_175_194)"/>
<path d="M1059.36 755.378C1060.79 755.378 1061.87 755.983 1062.6 757.193C1063.35 758.39 1063.72 760.132 1063.72 762.419C1063.72 764.705 1063.35 766.454 1062.6 767.664C1061.87 768.874 1060.79 769.479 1059.36 769.479C1057.95 769.479 1056.87 768.874 1056.12 767.664C1055.37 766.454 1055 764.705 1055 762.419C1055 760.145 1055.37 758.403 1056.12 757.193C1056.87 755.983 1057.95 755.378 1059.36 755.378ZM1056.42 762.419C1056.42 764.041 1056.57 765.31 1056.86 766.228L1061.3 757.393C1060.83 756.768 1060.19 756.455 1059.36 756.455C1058.44 756.455 1057.72 756.947 1057.2 757.931C1056.68 758.902 1056.42 760.398 1056.42 762.419ZM1059.36 768.382C1060.29 768.382 1061.02 767.896 1061.54 766.926C1062.06 765.942 1062.32 764.439 1062.32 762.419C1062.32 760.703 1062.15 759.374 1061.82 758.43L1057.38 767.345C1057.86 768.036 1058.52 768.382 1059.36 768.382Z" fill="url(#paint73_linear_175_194)"/>
<path d="M1059.36 778.171C1060.79 778.171 1061.87 778.776 1062.6 779.986C1063.35 781.183 1063.72 782.924 1063.72 785.211C1063.72 787.498 1063.35 789.247 1062.6 790.457C1061.87 791.666 1060.79 792.271 1059.36 792.271C1057.95 792.271 1056.87 791.666 1056.12 790.457C1055.37 789.247 1055 787.498 1055 785.211C1055 782.938 1055.37 781.196 1056.12 779.986C1056.87 778.776 1057.95 778.171 1059.36 778.171ZM1056.42 785.211C1056.42 786.833 1056.57 788.103 1056.86 789.021L1061.3 780.186C1060.83 779.561 1060.19 779.248 1059.36 779.248C1058.44 779.248 1057.72 779.74 1057.2 780.724C1056.68 781.695 1056.42 783.19 1056.42 785.211ZM1059.36 791.174C1060.29 791.174 1061.02 790.689 1061.54 789.719C1062.06 788.735 1062.32 787.232 1062.32 785.211C1062.32 783.496 1062.15 782.167 1061.82 781.223L1057.38 790.137C1057.86 790.829 1058.52 791.174 1059.36 791.174Z" fill="url(#paint74_linear_175_194)"/>
<path d="M1060.56 813.808H1063.5V814.865H1055.88V813.808H1059.28V802.599L1056.04 804.534L1055.48 803.636L1059.48 801.163H1060.56V813.808Z" fill="url(#paint75_linear_175_194)"/>
<path d="M1059.36 823.757C1060.79 823.757 1061.87 824.362 1062.6 825.572C1063.35 826.768 1063.72 828.51 1063.72 830.797C1063.72 833.084 1063.35 834.832 1062.6 836.042C1061.87 837.252 1060.79 837.857 1059.36 837.857C1057.95 837.857 1056.87 837.252 1056.12 836.042C1055.37 834.832 1055 833.084 1055 830.797C1055 828.523 1055.37 826.782 1056.12 825.572C1056.87 824.362 1057.95 823.757 1059.36 823.757ZM1056.42 830.797C1056.42 832.419 1056.57 833.689 1056.86 834.606L1061.3 825.771C1060.83 825.146 1060.19 824.834 1059.36 824.834C1058.44 824.834 1057.72 825.326 1057.2 826.31C1056.68 827.28 1056.42 828.776 1056.42 830.797ZM1059.36 836.76C1060.29 836.76 1061.02 836.275 1061.54 835.304C1062.06 834.32 1062.32 832.818 1062.32 830.797C1062.32 829.082 1062.15 827.752 1061.82 826.808L1057.38 835.723C1057.86 836.414 1058.52 836.76 1059.36 836.76Z" fill="url(#paint76_linear_175_194)"/>
<path d="M1060.56 859.393H1063.5V860.45H1055.88V859.393H1059.28V848.185L1056.04 850.12L1055.48 849.222L1059.48 846.749H1060.56V859.393Z" fill="url(#paint77_linear_175_194)"/>
<path d="M1060.56 882.186H1063.5V883.243H1055.88V882.186H1059.28V870.978L1056.04 872.912L1055.48 872.015L1059.48 869.542H1060.56V882.186Z" fill="url(#paint78_linear_175_194)"/>
<path d="M1097.7 722.637H1100.64V723.694H1093.02V722.637H1096.42V711.428L1093.18 713.363L1092.62 712.465L1096.62 709.992H1097.7V722.637Z" fill="url(#paint79_linear_175_194)"/>
<path d="M1096.5 732.586C1097.93 732.586 1099.01 733.191 1099.74 734.4C1100.49 735.597 1100.86 737.339 1100.86 739.626C1100.86 741.913 1100.49 743.661 1099.74 744.871C1099.01 746.081 1097.93 746.686 1096.5 746.686C1095.09 746.686 1094.01 746.081 1093.26 744.871C1092.51 743.661 1092.14 741.913 1092.14 739.626C1092.14 737.352 1092.51 735.61 1093.26 734.4C1094.01 733.191 1095.09 732.586 1096.5 732.586ZM1093.56 739.626C1093.56 741.248 1093.71 742.518 1094 743.435L1098.44 734.6C1097.97 733.975 1097.33 733.663 1096.5 733.663C1095.58 733.663 1094.86 734.155 1094.34 735.138C1093.82 736.109 1093.56 737.605 1093.56 739.626ZM1096.5 745.589C1097.43 745.589 1098.16 745.104 1098.68 744.133C1099.2 743.149 1099.46 741.647 1099.46 739.626C1099.46 737.911 1099.29 736.581 1098.96 735.637L1094.52 744.552C1095 745.243 1095.66 745.589 1096.5 745.589Z" fill="url(#paint80_linear_175_194)"/>
<path d="M1097.7 768.222H1100.64V769.279H1093.02V768.222H1096.42V757.014L1093.18 758.948L1092.62 758.051L1096.62 755.578H1097.7V768.222Z" fill="url(#paint81_linear_175_194)"/>
<path d="M1097.7 791.015H1100.64V792.072H1093.02V791.015H1096.42V779.807L1093.18 781.741L1092.62 780.844L1096.62 778.371H1097.7V791.015Z" fill="url(#paint82_linear_175_194)"/>
<path d="M1096.5 800.964C1097.93 800.964 1099.01 801.569 1099.74 802.779C1100.49 803.976 1100.86 805.717 1100.86 808.004C1100.86 810.291 1100.49 812.039 1099.74 813.249C1099.01 814.459 1097.93 815.064 1096.5 815.064C1095.09 815.064 1094.01 814.459 1093.26 813.249C1092.51 812.039 1092.14 810.291 1092.14 808.004C1092.14 805.731 1092.51 803.989 1093.26 802.779C1094.01 801.569 1095.09 800.964 1096.5 800.964ZM1093.56 808.004C1093.56 809.626 1093.71 810.896 1094 811.813L1098.44 802.978C1097.97 802.353 1097.33 802.041 1096.5 802.041C1095.58 802.041 1094.86 802.533 1094.34 803.517C1093.82 804.487 1093.56 805.983 1093.56 808.004ZM1096.5 813.967C1097.43 813.967 1098.16 813.482 1098.68 812.511C1099.2 811.528 1099.46 810.025 1099.46 808.004C1099.46 806.289 1099.29 804.959 1098.96 804.015L1094.52 812.93C1095 813.622 1095.66 813.967 1096.5 813.967Z" fill="url(#paint83_linear_175_194)"/>
<path d="M1097.7 836.601H1100.64V837.658H1093.02V836.601H1096.42V825.392L1093.18 827.327L1092.62 826.429L1096.62 823.956H1097.7V836.601Z" fill="url(#paint84_linear_175_194)"/>
<path d="M1097.7 859.393H1100.64V860.45H1093.02V859.393H1096.42V848.185L1093.18 850.12L1092.62 849.222L1096.62 846.749H1097.7V859.393Z" fill="url(#paint85_linear_175_194)"/>
<path d="M1096.5 869.342C1097.93 869.342 1099.01 869.947 1099.74 871.157C1100.49 872.354 1100.86 874.096 1100.86 876.383C1100.86 878.669 1100.49 880.418 1099.74 881.628C1099.01 882.838 1097.93 883.443 1096.5 883.443C1095.09 883.443 1094.01 882.838 1093.26 881.628C1092.51 880.418 1092.14 878.669 1092.14 876.383C1092.14 874.109 1092.51 872.367 1093.26 871.157C1094.01 869.947 1095.09 869.342 1096.5 869.342ZM1093.56 876.383C1093.56 878.005 1093.71 879.274 1094 880.192L1098.44 871.357C1097.97 870.732 1097.33 870.419 1096.5 870.419C1095.58 870.419 1094.86 870.911 1094.34 871.895C1093.82 872.866 1093.56 874.362 1093.56 876.383ZM1096.5 882.346C1097.43 882.346 1098.16 881.86 1098.68 880.89C1099.2 879.906 1099.46 878.404 1099.46 876.383C1099.46 874.667 1099.29 873.338 1098.96 872.394L1094.52 881.309C1095 882 1095.66 882.346 1096.5 882.346Z" fill="url(#paint86_linear_175_194)"/>
<path d="M1097.7 904.979H1100.64V906.036H1093.02V904.979H1096.42V893.771L1093.18 895.705L1092.62 894.808L1096.62 892.335H1097.7V904.979Z" fill="url(#paint87_linear_175_194)"/>
<path d="M1096.5 914.928C1097.93 914.928 1099.01 915.533 1099.74 916.743C1100.49 917.94 1100.86 919.681 1100.86 921.968C1100.86 924.255 1100.49 926.003 1099.74 927.213C1099.01 928.423 1097.93 929.028 1096.5 929.028C1095.09 929.028 1094.01 928.423 1093.26 927.213C1092.51 926.003 1092.14 924.255 1092.14 921.968C1092.14 919.695 1092.51 917.953 1093.26 916.743C1094.01 915.533 1095.09 914.928 1096.5 914.928ZM1093.56 921.968C1093.56 923.59 1093.71 924.86 1094 925.777L1098.44 916.942C1097.97 916.317 1097.33 916.005 1096.5 916.005C1095.58 916.005 1094.86 916.497 1094.34 917.481C1093.82 918.451 1093.56 919.947 1093.56 921.968ZM1096.5 927.931C1097.43 927.931 1098.16 927.446 1098.68 926.475C1099.2 925.492 1099.46 923.989 1099.46 921.968C1099.46 920.253 1099.29 918.923 1098.96 917.979L1094.52 926.894C1095 927.586 1095.66 927.931 1096.5 927.931Z" fill="url(#paint88_linear_175_194)"/>
<path d="M1133.64 709.793C1135.07 709.793 1136.15 710.398 1136.88 711.608C1137.63 712.804 1138 714.546 1138 716.833C1138 719.12 1137.63 720.868 1136.88 722.078C1136.15 723.288 1135.07 723.893 1133.64 723.893C1132.23 723.893 1131.15 723.288 1130.4 722.078C1129.65 720.868 1129.28 719.12 1129.28 716.833C1129.28 714.559 1129.65 712.818 1130.4 711.608C1131.15 710.398 1132.23 709.793 1133.64 709.793ZM1130.7 716.833C1130.7 718.455 1130.85 719.725 1131.14 720.642L1135.58 711.807C1135.11 711.182 1134.47 710.87 1133.64 710.87C1132.72 710.87 1132 711.362 1131.48 712.346C1130.96 713.316 1130.7 714.812 1130.7 716.833ZM1133.64 722.796C1134.57 722.796 1135.3 722.311 1135.82 721.34C1136.34 720.356 1136.6 718.854 1136.6 716.833C1136.6 715.118 1136.43 713.788 1136.1 712.844L1131.66 721.759C1132.14 722.45 1132.8 722.796 1133.64 722.796Z" fill="url(#paint89_linear_175_194)"/>
<path d="M1134.84 745.429H1137.78V746.486H1130.16V745.429H1133.56V734.221L1130.32 736.156L1129.76 735.258L1133.76 732.785H1134.84V745.429Z" fill="url(#paint90_linear_175_194)"/>
<path d="M1134.84 768.222H1137.78V769.279H1130.16V768.222H1133.56V757.014L1130.32 758.948L1129.76 758.051L1133.76 755.578H1134.84V768.222Z" fill="url(#paint91_linear_175_194)"/>
<path d="M1133.64 778.171C1135.07 778.171 1136.15 778.776 1136.88 779.986C1137.63 781.183 1138 782.924 1138 785.211C1138 787.498 1137.63 789.247 1136.88 790.457C1136.15 791.666 1135.07 792.271 1133.64 792.271C1132.23 792.271 1131.15 791.666 1130.4 790.457C1129.65 789.247 1129.28 787.498 1129.28 785.211C1129.28 782.938 1129.65 781.196 1130.4 779.986C1131.15 778.776 1132.23 778.171 1133.64 778.171ZM1130.7 785.211C1130.7 786.833 1130.85 788.103 1131.14 789.021L1135.58 780.186C1135.11 779.561 1134.47 779.248 1133.64 779.248C1132.72 779.248 1132 779.74 1131.48 780.724C1130.96 781.695 1130.7 783.19 1130.7 785.211ZM1133.64 791.174C1134.57 791.174 1135.3 790.689 1135.82 789.719C1136.34 788.735 1136.6 787.232 1136.6 785.211C1136.6 783.496 1136.43 782.167 1136.1 781.223L1131.66 790.137C1132.14 790.829 1132.8 791.174 1133.64 791.174Z" fill="url(#paint92_linear_175_194)"/>
<path d="M1133.64 800.964C1135.07 800.964 1136.15 801.569 1136.88 802.779C1137.63 803.976 1138 805.717 1138 808.004C1138 810.291 1137.63 812.039 1136.88 813.249C1136.15 814.459 1135.07 815.064 1133.64 815.064C1132.23 815.064 1131.15 814.459 1130.4 813.249C1129.65 812.039 1129.28 810.291 1129.28 808.004C1129.28 805.731 1129.65 803.989 1130.4 802.779C1131.15 801.569 1132.23 800.964 1133.64 800.964ZM1130.7 808.004C1130.7 809.626 1130.85 810.896 1131.14 811.813L1135.58 802.978C1135.11 802.353 1134.47 802.041 1133.64 802.041C1132.72 802.041 1132 802.533 1131.48 803.517C1130.96 804.487 1130.7 805.983 1130.7 808.004ZM1133.64 813.967C1134.57 813.967 1135.3 813.482 1135.82 812.511C1136.34 811.528 1136.6 810.025 1136.6 808.004C1136.6 806.289 1136.43 804.959 1136.1 804.015L1131.66 812.93C1132.14 813.622 1132.8 813.967 1133.64 813.967Z" fill="url(#paint93_linear_175_194)"/>
</g>
<defs>
<filter id="filter0_f_175_194" x="-400.19" y="0.809998" width="2141.38" height="1500.38" filterUnits="userSpaceOnUse" color-interpolation-filters="sRGB">
<feFlood flood-opacity="0" result="BackgroundImageFix"/>
<feBlend mode="normal" in="SourceGraphic" in2="BackgroundImageFix" result="shape"/>
<feGaussianBlur stdDeviation="200.095" result="effect1_foregroundBlur_175_194"/>
</filter>
<linearGradient id="paint0_linear_175_194" x1="210.5" y1="987" x2="210.5" y2="1298.38" gradientUnits="userSpaceOnUse">
<stop stop-color="#F7DD43"/>
<stop offset="1" stop-color="#F7DD43" stop-opacity="0"/>
</linearGradient>
<linearGradient id="paint1_linear_175_194" x1="210.5" y1="987" x2="210.5" y2="1298.38" gradientUnits="userSpaceOnUse">
<stop stop-color="#F7DD43"/>
<stop offset="1" stop-color="#F7DD43" stop-opacity="0"/>
</linearGradient>
<linearGradient id="paint2_linear_175_194" x1="210.5" y1="987" x2="210.5" y2="1298.38" gradientUnits="userSpaceOnUse">
<stop stop-color="#F7DD43"/>
<stop offset="1" stop-color="#F7DD43" stop-opacity="0"/>
</linearGradient>
<linearGradient id="paint3_linear_175_194" x1="210.5" y1="987" x2="210.5" y2="1298.38" gradientUnits="userSpaceOnUse">
<stop stop-color="#F7DD43"/>
<stop offset="1" stop-color="#F7DD43" stop-opacity="0"/>
</linearGradient>
<linearGradient id="paint4_linear_175_194" x1="210.5" y1="987" x2="210.5" y2="1298.38" gradientUnits="userSpaceOnUse">
<stop stop-color="#F7DD43"/>
<stop offset="1" stop-color="#F7DD43" stop-opacity="0"/>
</linearGradient>
<linearGradient id="paint5_linear_175_194" x1="210.5" y1="987" x2="210.5" y2="1298.38" gradientUnits="userSpaceOnUse">
<stop stop-color="#F7DD43"/>
<stop offset="1" stop-color="#F7DD43" stop-opacity="0"/>
</linearGradient>
<linearGradient id="paint6_linear_175_194" x1="210.5" y1="987" x2="210.5" y2="1298.38" gradientUnits="userSpaceOnUse">
<stop stop-color="#F7DD43"/>
<stop offset="1" stop-color="#F7DD43" stop-opacity="0"/>
</linearGradient>
<linearGradient id="paint7_linear_175_194" x1="210.5" y1="987" x2="210.5" y2="1298.38" gradientUnits="userSpaceOnUse">
<stop stop-color="#F7DD43"/>
<stop offset="1" stop-color="#F7DD43" stop-opacity="0"/>
</linearGradient>
<linearGradient id="paint8_linear_175_194" x1="210.5" y1="987" x2="210.5" y2="1298.38" gradientUnits="userSpaceOnUse">
<stop stop-color="#F7DD43"/>
<stop offset="1" stop-color="#F7DD43" stop-opacity="0"/>
</linearGradient>
<linearGradient id="paint9_linear_175_194" x1="210.5" y1="987" x2="210.5" y2="1298.38" gradientUnits="userSpaceOnUse">
<stop stop-color="#F7DD43"/>
<stop offset="1" stop-color="#F7DD43" stop-opacity="0"/>
</linearGradient>
<linearGradient id="paint10_linear_175_194" x1="210.5" y1="987" x2="210.5" y2="1298.38" gradientUnits="userSpaceOnUse">
<stop stop-color="#F7DD43"/>
<stop offset="1" stop-color="#F7DD43" stop-opacity="0"/>
</linearGradient>
<linearGradient id="paint11_linear_175_194" x1="210.5" y1="987" x2="210.5" y2="1298.38" gradientUnits="userSpaceOnUse">
<stop stop-color="#F7DD43"/>
<stop offset="1" stop-color="#F7DD43" stop-opacity="0"/>
</linearGradient>
<linearGradient id="paint12_linear_175_194" x1="210.5" y1="987" x2="210.5" y2="1298.38" gradientUnits="userSpaceOnUse">
<stop stop-color="#F7DD43"/>
<stop offset="1" stop-color="#F7DD43" stop-opacity="0"/>
</linearGradient>
<linearGradient id="paint13_linear_175_194" x1="210.5" y1="987" x2="210.5" y2="1298.38" gradientUnits="userSpaceOnUse">
<stop stop-color="#F7DD43"/>
<stop offset="1" stop-color="#F7DD43" stop-opacity="0"/>
</linearGradient>
<linearGradient id="paint14_linear_175_194" x1="210.5" y1="987" x2="210.5" y2="1298.38" gradientUnits="userSpaceOnUse">
<stop stop-color="#F7DD43"/>
<stop offset="1" stop-color="#F7DD43" stop-opacity="0"/>
</linearGradient>
<linearGradient id="paint15_linear_175_194" x1="210.5" y1="987" x2="210.5" y2="1298.38" gradientUnits="userSpaceOnUse">
<stop stop-color="#F7DD43"/>
<stop offset="1" stop-color="#F7DD43" stop-opacity="0"/>
</linearGradient>
<linearGradient id="paint16_linear_175_194" x1="210.5" y1="987" x2="210.5" y2="1298.38" gradientUnits="userSpaceOnUse">
<stop stop-color="#F7DD43"/>
<stop offset="1" stop-color="#F7DD43" stop-opacity="0"/>
</linearGradient>
<linearGradient id="paint17_linear_175_194" x1="210.5" y1="987" x2="210.5" y2="1298.38" gradientUnits="userSpaceOnUse">
<stop stop-color="#F7DD43"/>
<stop offset="1" stop-color="#F7DD43" stop-opacity="0"/>
</linearGradient>
<linearGradient id="paint18_linear_175_194" x1="210.5" y1="987" x2="210.5" y2="1298.38" gradientUnits="userSpaceOnUse">
<stop stop-color="#F7DD43"/>
<stop offset="1" stop-color="#F7DD43" stop-opacity="0"/>
</linearGradient>
<linearGradient id="paint19_linear_175_194" x1="210.5" y1="987" x2="210.5" y2="1298.38" gradientUnits="userSpaceOnUse">
<stop stop-color="#F7DD43"/>
<stop offset="1" stop-color="#F7DD43" stop-opacity="0"/>
</linearGradient>
<linearGradient id="paint20_linear_175_194" x1="210.5" y1="987" x2="210.5" y2="1298.38" gradientUnits="userSpaceOnUse">
<stop stop-color="#F7DD43"/>
<stop offset="1" stop-color="#F7DD43" stop-opacity="0"/>
</linearGradient>
<linearGradient id="paint21_linear_175_194" x1="210.5" y1="987" x2="210.5" y2="1298.38" gradientUnits="userSpaceOnUse">
<stop stop-color="#F7DD43"/>
<stop offset="1" stop-color="#F7DD43" stop-opacity="0"/>
</linearGradient>
<linearGradient id="paint22_linear_175_194" x1="210.5" y1="987" x2="210.5" y2="1298.38" gradientUnits="userSpaceOnUse">
<stop stop-color="#F7DD43"/>
<stop offset="1" stop-color="#F7DD43" stop-opacity="0"/>
</linearGradient>
<linearGradient id="paint23_linear_175_194" x1="210.5" y1="987" x2="210.5" y2="1298.38" gradientUnits="userSpaceOnUse">
<stop stop-color="#F7DD43"/>
<stop offset="1" stop-color="#F7DD43" stop-opacity="0"/>
</linearGradient>
<linearGradient id="paint24_linear_175_194" x1="210.5" y1="987" x2="210.5" y2="1298.38" gradientUnits="userSpaceOnUse">
<stop stop-color="#F7DD43"/>
<stop offset="1" stop-color="#F7DD43" stop-opacity="0"/>
</linearGradient>
<linearGradient id="paint25_linear_175_194" x1="210.5" y1="987" x2="210.5" y2="1298.38" gradientUnits="userSpaceOnUse">
<stop stop-color="#F7DD43"/>
<stop offset="1" stop-color="#F7DD43" stop-opacity="0"/>
</linearGradient>
<linearGradient id="paint26_linear_175_194" x1="210.5" y1="987" x2="210.5" y2="1298.38" gradientUnits="userSpaceOnUse">
<stop stop-color="#F7DD43"/>
<stop offset="1" stop-color="#F7DD43" stop-opacity="0"/>
</linearGradient>
<linearGradient id="paint27_linear_175_194" x1="210.5" y1="987" x2="210.5" y2="1298.38" gradientUnits="userSpaceOnUse">
<stop stop-color="#F7DD43"/>
<stop offset="1" stop-color="#F7DD43" stop-opacity="0"/>
</linearGradient>
<linearGradient id="paint28_linear_175_194" x1="210.5" y1="987" x2="210.5" y2="1298.38" gradientUnits="userSpaceOnUse">
<stop stop-color="#F7DD43"/>
<stop offset="1" stop-color="#F7DD43" stop-opacity="0"/>
</linearGradient>
<linearGradient id="paint29_linear_175_194" x1="210.5" y1="987" x2="210.5" y2="1298.38" gradientUnits="userSpaceOnUse">
<stop stop-color="#F7DD43"/>
<stop offset="1" stop-color="#F7DD43" stop-opacity="0"/>
</linearGradient>
<linearGradient id="paint30_linear_175_194" x1="210.5" y1="987" x2="210.5" y2="1298.38" gradientUnits="userSpaceOnUse">
<stop stop-color="#F7DD43"/>
<stop offset="1" stop-color="#F7DD43" stop-opacity="0"/>
</linearGradient>
<linearGradient id="paint31_linear_175_194" x1="210.5" y1="987" x2="210.5" y2="1298.38" gradientUnits="userSpaceOnUse">
<stop stop-color="#F7DD43"/>
<stop offset="1" stop-color="#F7DD43" stop-opacity="0"/>
</linearGradient>
<linearGradient id="paint32_linear_175_194" x1="210.5" y1="987" x2="210.5" y2="1298.38" gradientUnits="userSpaceOnUse">
<stop stop-color="#F7DD43"/>
<stop offset="1" stop-color="#F7DD43" stop-opacity="0"/>
</linearGradient>
<linearGradient id="paint33_linear_175_194" x1="210.5" y1="987" x2="210.5" y2="1298.38" gradientUnits="userSpaceOnUse">
<stop stop-color="#F7DD43"/>
<stop offset="1" stop-color="#F7DD43" stop-opacity="0"/>
</linearGradient>
<linearGradient id="paint34_linear_175_194" x1="210.5" y1="987" x2="210.5" y2="1298.38" gradientUnits="userSpaceOnUse">
<stop stop-color="#F7DD43"/>
<stop offset="1" stop-color="#F7DD43" stop-opacity="0"/>
</linearGradient>
<linearGradient id="paint35_linear_175_194" x1="210.5" y1="987" x2="210.5" y2="1298.38" gradientUnits="userSpaceOnUse">
<stop stop-color="#F7DD43"/>
<stop offset="1" stop-color="#F7DD43" stop-opacity="0"/>
</linearGradient>
<linearGradient id="paint36_linear_175_194" x1="210.5" y1="987" x2="210.5" y2="1298.38" gradientUnits="userSpaceOnUse">
<stop stop-color="#F7DD43"/>
<stop offset="1" stop-color="#F7DD43" stop-opacity="0"/>
</linearGradient>
<linearGradient id="paint37_linear_175_194" x1="210.5" y1="987" x2="210.5" y2="1298.38" gradientUnits="userSpaceOnUse">
<stop stop-color="#F7DD43"/>
<stop offset="1" stop-color="#F7DD43" stop-opacity="0"/>
</linearGradient>
<linearGradient id="paint38_linear_175_194" x1="210.5" y1="987" x2="210.5" y2="1298.38" gradientUnits="userSpaceOnUse">
<stop stop-color="#F7DD43"/>
<stop offset="1" stop-color="#F7DD43" stop-opacity="0"/>
</linearGradient>
<linearGradient id="paint39_linear_175_194" x1="210.5" y1="987" x2="210.5" y2="1298.38" gradientUnits="userSpaceOnUse">
<stop stop-color="#F7DD43"/>
<stop offset="1" stop-color="#F7DD43" stop-opacity="0"/>
</linearGradient>
<linearGradient id="paint40_linear_175_194" x1="210.5" y1="987" x2="210.5" y2="1298.38" gradientUnits="userSpaceOnUse">
<stop stop-color="#F7DD43"/>
<stop offset="1" stop-color="#F7DD43" stop-opacity="0"/>
</linearGradient>
<linearGradient id="paint41_linear_175_194" x1="210.5" y1="987" x2="210.5" y2="1298.38" gradientUnits="userSpaceOnUse">
<stop stop-color="#F7DD43"/>
<stop offset="1" stop-color="#F7DD43" stop-opacity="0"/>
</linearGradient>
<linearGradient id="paint42_linear_175_194" x1="210.5" y1="987" x2="210.5" y2="1298.38" gradientUnits="userSpaceOnUse">
<stop stop-color="#F7DD43"/>
<stop offset="1" stop-color="#F7DD43" stop-opacity="0"/>
</linearGradient>
<linearGradient id="paint43_linear_175_194" x1="210.5" y1="987" x2="210.5" y2="1298.38" gradientUnits="userSpaceOnUse">
<stop stop-color="#F7DD43"/>
<stop offset="1" stop-color="#F7DD43" stop-opacity="0"/>
</linearGradient>
<linearGradient id="paint44_linear_175_194" x1="210.5" y1="987" x2="210.5" y2="1298.38" gradientUnits="userSpaceOnUse">
<stop stop-color="#F7DD43"/>
<stop offset="1" stop-color="#F7DD43" stop-opacity="0"/>
</linearGradient>
<linearGradient id="paint45_linear_175_194" x1="210.5" y1="987" x2="210.5" y2="1298.38" gradientUnits="userSpaceOnUse">
<stop stop-color="#F7DD43"/>
<stop offset="1" stop-color="#F7DD43" stop-opacity="0"/>
</linearGradient>
<linearGradient id="paint46_linear_175_194" x1="210.5" y1="987" x2="210.5" y2="1298.38" gradientUnits="userSpaceOnUse">
<stop stop-color="#F7DD43"/>
<stop offset="1" stop-color="#F7DD43" stop-opacity="0"/>
</linearGradient>
<linearGradient id="paint47_linear_175_194" x1="1096.5" y1="687" x2="1096.5" y2="985.818" gradientUnits="userSpaceOnUse">
<stop stop-color="#F7DD43"/>
<stop offset="1" stop-color="#F7DD43" stop-opacity="0"/>
</linearGradient>
<linearGradient id="paint48_linear_175_194" x1="1096.5" y1="687" x2="1096.5" y2="985.818" gradientUnits="userSpaceOnUse">
<stop stop-color="#F7DD43"/>
<stop offset="1" stop-color="#F7DD43" stop-opacity="0"/>
</linearGradient>
<linearGradient id="paint49_linear_175_194" x1="1096.5" y1="687" x2="1096.5" y2="985.818" gradientUnits="userSpaceOnUse">
<stop stop-color="#F7DD43"/>
<stop offset="1" stop-color="#F7DD43" stop-opacity="0"/>
</linearGradient>
<linearGradient id="paint50_linear_175_194" x1="1096.5" y1="687" x2="1096.5" y2="985.818" gradientUnits="userSpaceOnUse">
<stop stop-color="#F7DD43"/>
<stop offset="1" stop-color="#F7DD43" stop-opacity="0"/>
</linearGradient>
<linearGradient id="paint51_linear_175_194" x1="1096.5" y1="687" x2="1096.5" y2="985.818" gradientUnits="userSpaceOnUse">
<stop stop-color="#F7DD43"/>
<stop offset="1" stop-color="#F7DD43" stop-opacity="0"/>
</linearGradient>
<linearGradient id="paint52_linear_175_194" x1="1096.5" y1="687" x2="1096.5" y2="985.818" gradientUnits="userSpaceOnUse">
<stop stop-color="#F7DD43"/>
<stop offset="1" stop-color="#F7DD43" stop-opacity="0"/>
</linearGradient>
<linearGradient id="paint53_linear_175_194" x1="1096.5" y1="687" x2="1096.5" y2="985.818" gradientUnits="userSpaceOnUse">
<stop stop-color="#F7DD43"/>
<stop offset="1" stop-color="#F7DD43" stop-opacity="0"/>
</linearGradient>
<linearGradient id="paint54_linear_175_194" x1="1096.5" y1="687" x2="1096.5" y2="985.818" gradientUnits="userSpaceOnUse">
<stop stop-color="#F7DD43"/>
<stop offset="1" stop-color="#F7DD43" stop-opacity="0"/>
</linearGradient>
<linearGradient id="paint55_linear_175_194" x1="1096.5" y1="687" x2="1096.5" y2="985.818" gradientUnits="userSpaceOnUse">
<stop stop-color="#F7DD43"/>
<stop offset="1" stop-color="#F7DD43" stop-opacity="0"/>
</linearGradient>
<linearGradient id="paint56_linear_175_194" x1="1096.5" y1="687" x2="1096.5" y2="985.818" gradientUnits="userSpaceOnUse">
<stop stop-color="#F7DD43"/>
<stop offset="1" stop-color="#F7DD43" stop-opacity="0"/>
</linearGradient>
<linearGradient id="paint57_linear_175_194" x1="1096.5" y1="687" x2="1096.5" y2="985.818" gradientUnits="userSpaceOnUse">
<stop stop-color="#F7DD43"/>
<stop offset="1" stop-color="#F7DD43" stop-opacity="0"/>
</linearGradient>
<linearGradient id="paint58_linear_175_194" x1="1096.5" y1="687" x2="1096.5" y2="985.818" gradientUnits="userSpaceOnUse">
<stop stop-color="#F7DD43"/>
<stop offset="1" stop-color="#F7DD43" stop-opacity="0"/>
</linearGradient>
<linearGradient id="paint59_linear_175_194" x1="1096.5" y1="687" x2="1096.5" y2="985.818" gradientUnits="userSpaceOnUse">
<stop stop-color="#F7DD43"/>
<stop offset="1" stop-color="#F7DD43" stop-opacity="0"/>
</linearGradient>
<linearGradient id="paint60_linear_175_194" x1="1096.5" y1="687" x2="1096.5" y2="985.818" gradientUnits="userSpaceOnUse">
<stop stop-color="#F7DD43"/>
<stop offset="1" stop-color="#F7DD43" stop-opacity="0"/>
</linearGradient>
<linearGradient id="paint61_linear_175_194" x1="1096.5" y1="687" x2="1096.5" y2="985.818" gradientUnits="userSpaceOnUse">
<stop stop-color="#F7DD43"/>
<stop offset="1" stop-color="#F7DD43" stop-opacity="0"/>
</linearGradient>
<linearGradient id="paint62_linear_175_194" x1="1096.5" y1="687" x2="1096.5" y2="985.818" gradientUnits="userSpaceOnUse">
<stop stop-color="#F7DD43"/>
<stop offset="1" stop-color="#F7DD43" stop-opacity="0"/>
</linearGradient>
<linearGradient id="paint63_linear_175_194" x1="1096.5" y1="687" x2="1096.5" y2="985.818" gradientUnits="userSpaceOnUse">
<stop stop-color="#F7DD43"/>
<stop offset="1" stop-color="#F7DD43" stop-opacity="0"/>
</linearGradient>
<linearGradient id="paint64_linear_175_194" x1="1096.5" y1="687" x2="1096.5" y2="985.818" gradientUnits="userSpaceOnUse">
<stop stop-color="#F7DD43"/>
<stop offset="1" stop-color="#F7DD43" stop-opacity="0"/>
</linearGradient>
<linearGradient id="paint65_linear_175_194" x1="1096.5" y1="687" x2="1096.5" y2="985.818" gradientUnits="userSpaceOnUse">
<stop stop-color="#F7DD43"/>
<stop offset="1" stop-color="#F7DD43" stop-opacity="0"/>
</linearGradient>
<linearGradient id="paint66_linear_175_194" x1="1096.5" y1="687" x2="1096.5" y2="985.818" gradientUnits="userSpaceOnUse">
<stop stop-color="#F7DD43"/>
<stop offset="1" stop-color="#F7DD43" stop-opacity="0"/>
</linearGradient>
<linearGradient id="paint67_linear_175_194" x1="1096.5" y1="687" x2="1096.5" y2="985.818" gradientUnits="userSpaceOnUse">
<stop stop-color="#F7DD43"/>
<stop offset="1" stop-color="#F7DD43" stop-opacity="0"/>
</linearGradient>
<linearGradient id="paint68_linear_175_194" x1="1096.5" y1="687" x2="1096.5" y2="985.818" gradientUnits="userSpaceOnUse">
<stop stop-color="#F7DD43"/>
<stop offset="1" stop-color="#F7DD43" stop-opacity="0"/>
</linearGradient>
<linearGradient id="paint69_linear_175_194" x1="1096.5" y1="687" x2="1096.5" y2="985.818" gradientUnits="userSpaceOnUse">
<stop stop-color="#F7DD43"/>
<stop offset="1" stop-color="#F7DD43" stop-opacity="0"/>
</linearGradient>
<linearGradient id="paint70_linear_175_194" x1="1096.5" y1="687" x2="1096.5" y2="985.818" gradientUnits="userSpaceOnUse">
<stop stop-color="#F7DD43"/>
<stop offset="1" stop-color="#F7DD43" stop-opacity="0"/>
</linearGradient>
<linearGradient id="paint71_linear_175_194" x1="1096.5" y1="687" x2="1096.5" y2="985.818" gradientUnits="userSpaceOnUse">
<stop stop-color="#F7DD43"/>
<stop offset="1" stop-color="#F7DD43" stop-opacity="0"/>
</linearGradient>
<linearGradient id="paint72_linear_175_194" x1="1096.5" y1="687" x2="1096.5" y2="985.818" gradientUnits="userSpaceOnUse">
<stop stop-color="#F7DD43"/>
<stop offset="1" stop-color="#F7DD43" stop-opacity="0"/>
</linearGradient>
<linearGradient id="paint73_linear_175_194" x1="1096.5" y1="687" x2="1096.5" y2="985.818" gradientUnits="userSpaceOnUse">
<stop stop-color="#F7DD43"/>
<stop offset="1" stop-color="#F7DD43" stop-opacity="0"/>
</linearGradient>
<linearGradient id="paint74_linear_175_194" x1="1096.5" y1="687" x2="1096.5" y2="985.818" gradientUnits="userSpaceOnUse">
<stop stop-color="#F7DD43"/>
<stop offset="1" stop-color="#F7DD43" stop-opacity="0"/>
</linearGradient>
<linearGradient id="paint75_linear_175_194" x1="1096.5" y1="687" x2="1096.5" y2="985.818" gradientUnits="userSpaceOnUse">
<stop stop-color="#F7DD43"/>
<stop offset="1" stop-color="#F7DD43" stop-opacity="0"/>
</linearGradient>
<linearGradient id="paint76_linear_175_194" x1="1096.5" y1="687" x2="1096.5" y2="985.818" gradientUnits="userSpaceOnUse">
<stop stop-color="#F7DD43"/>
<stop offset="1" stop-color="#F7DD43" stop-opacity="0"/>
</linearGradient>
<linearGradient id="paint77_linear_175_194" x1="1096.5" y1="687" x2="1096.5" y2="985.818" gradientUnits="userSpaceOnUse">
<stop stop-color="#F7DD43"/>
<stop offset="1" stop-color="#F7DD43" stop-opacity="0"/>
</linearGradient>
<linearGradient id="paint78_linear_175_194" x1="1096.5" y1="687" x2="1096.5" y2="985.818" gradientUnits="userSpaceOnUse">
<stop stop-color="#F7DD43"/>
<stop offset="1" stop-color="#F7DD43" stop-opacity="0"/>
</linearGradient>
<linearGradient id="paint79_linear_175_194" x1="1096.5" y1="687" x2="1096.5" y2="985.818" gradientUnits="userSpaceOnUse">
<stop stop-color="#F7DD43"/>
<stop offset="1" stop-color="#F7DD43" stop-opacity="0"/>
</linearGradient>
<linearGradient id="paint80_linear_175_194" x1="1096.5" y1="687" x2="1096.5" y2="985.818" gradientUnits="userSpaceOnUse">
<stop stop-color="#F7DD43"/>
<stop offset="1" stop-color="#F7DD43" stop-opacity="0"/>
</linearGradient>
<linearGradient id="paint81_linear_175_194" x1="1096.5" y1="687" x2="1096.5" y2="985.818" gradientUnits="userSpaceOnUse">
<stop stop-color="#F7DD43"/>
<stop offset="1" stop-color="#F7DD43" stop-opacity="0"/>
</linearGradient>
<linearGradient id="paint82_linear_175_194" x1="1096.5" y1="687" x2="1096.5" y2="985.818" gradientUnits="userSpaceOnUse">
<stop stop-color="#F7DD43"/>
<stop offset="1" stop-color="#F7DD43" stop-opacity="0"/>
</linearGradient>
<linearGradient id="paint83_linear_175_194" x1="1096.5" y1="687" x2="1096.5" y2="985.818" gradientUnits="userSpaceOnUse">
<stop stop-color="#F7DD43"/>
<stop offset="1" stop-color="#F7DD43" stop-opacity="0"/>
</linearGradient>
<linearGradient id="paint84_linear_175_194" x1="1096.5" y1="687" x2="1096.5" y2="985.818" gradientUnits="userSpaceOnUse">
<stop stop-color="#F7DD43"/>
<stop offset="1" stop-color="#F7DD43" stop-opacity="0"/>
</linearGradient>
<linearGradient id="paint85_linear_175_194" x1="1096.5" y1="687" x2="1096.5" y2="985.818" gradientUnits="userSpaceOnUse">
<stop stop-color="#F7DD43"/>
<stop offset="1" stop-color="#F7DD43" stop-opacity="0"/>
</linearGradient>
<linearGradient id="paint86_linear_175_194" x1="1096.5" y1="687" x2="1096.5" y2="985.818" gradientUnits="userSpaceOnUse">
<stop stop-color="#F7DD43"/>
<stop offset="1" stop-color="#F7DD43" stop-opacity="0"/>
</linearGradient>
<linearGradient id="paint87_linear_175_194" x1="1096.5" y1="687" x2="1096.5" y2="985.818" gradientUnits="userSpaceOnUse">
<stop stop-color="#F7DD43"/>
<stop offset="1" stop-color="#F7DD43" stop-opacity="0"/>
</linearGradient>
<linearGradient id="paint88_linear_175_194" x1="1096.5" y1="687" x2="1096.5" y2="985.818" gradientUnits="userSpaceOnUse">
<stop stop-color="#F7DD43"/>
<stop offset="1" stop-color="#F7DD43" stop-opacity="0"/>
</linearGradient>
<linearGradient id="paint89_linear_175_194" x1="1096.5" y1="687" x2="1096.5" y2="985.818" gradientUnits="userSpaceOnUse">
<stop stop-color="#F7DD43"/>
<stop offset="1" stop-color="#F7DD43" stop-opacity="0"/>
</linearGradient>
<linearGradient id="paint90_linear_175_194" x1="1096.5" y1="687" x2="1096.5" y2="985.818" gradientUnits="userSpaceOnUse">
<stop stop-color="#F7DD43"/>
<stop offset="1" stop-color="#F7DD43" stop-opacity="0"/>
</linearGradient>
<linearGradient id="paint91_linear_175_194" x1="1096.5" y1="687" x2="1096.5" y2="985.818" gradientUnits="userSpaceOnUse">
<stop stop-color="#F7DD43"/>
<stop offset="1" stop-color="#F7DD43" stop-opacity="0"/>
</linearGradient>
<linearGradient id="paint92_linear_175_194" x1="1096.5" y1="687" x2="1096.5" y2="985.818" gradientUnits="userSpaceOnUse">
<stop stop-color="#F7DD43"/>
<stop offset="1" stop-color="#F7DD43" stop-opacity="0"/>
</linearGradient>
<linearGradient id="paint93_linear_175_194" x1="1096.5" y1="687" x2="1096.5" y2="985.818" gradientUnits="userSpaceOnUse">
<stop stop-color="#F7DD43"/>
<stop offset="1" stop-color="#F7DD43" stop-opacity="0"/>
</linearGradient>
</defs>
</svg>

